# File created by Blade
# Date/Time:  Wed Sep 24 19:25:39 2014
# Frame Rate: 120.000 fps
#------------------------------------------------------
:FULLY-SPECIFIED
:DEGREES
797
root -15.444957 33.185278 -3.145576 14.344442 -13.621300 8.932182
Spine -21.113230 14.719369 -3.886667
Head 12.851565 -3.182579 2.072774
LeftShoulder -16.100963 28.499264 6.940867
LeftArm 15.526475 25.889244 -75.352253
LeftForeArm 5.704565 -0.000000 35.533917
LeftHand -26.149984 0.000000 -1.234146
LeftHandThumb1 -26.253704 0.000000 33.147579
RightShoulder -19.018646 6.734309 -20.449969
RightArm -13.688026 -25.013189 85.765403
RightForeArm -16.148101 0.000000 57.960805
RightHand 0.643152 0.000000 -32.475804
RightHandThumb1 -24.326973 -0.000000 -32.862282
LeftUpLeg -35.065709 -4.425920 -1.795552
LeftLeg 107.463274 -0.000000 -0.000000
LeftFoot 36.217380 11.875048 -19.038794
LeftToeBase 22.847981 -0.000000 -0.000000
RightUpLeg -12.047889 2.115797 -4.202801
RightLeg 2.635962 -0.000000 -0.000000
RightFoot -9.629671 0.341796 -9.725486
RightToeBase -3.445745 -0.000000 0.000000
798
root -15.443511 33.183136 -3.145204 14.354660 -13.574740 8.923858
Spine -21.100982 14.728007 -3.870293
Head 12.805703 -3.218674 2.100531
LeftShoulder -16.092992 28.493275 6.960579
LeftArm 15.526387 25.827614 -75.372335
LeftForeArm 5.733843 0.000000 35.734008
LeftHand -26.166805 -0.000000 -1.222582
LeftHandThumb1 -26.253704 0.000000 33.147579
RightShoulder -19.019207 6.758010 -20.441961
RightArm -13.744059 -24.952156 85.735251
RightForeArm -16.153050 -0.000000 58.028308
RightHand 0.677594 0.000000 -32.445728
RightHandThumb1 -24.326973 -0.000000 -32.862282
LeftUpLeg -35.086484 -4.726330 -1.692792
LeftLeg 107.421156 -0.000000 -0.000000
LeftFoot 36.313668 11.483790 -18.684998
LeftToeBase 22.431074 -0.000000 -0.000000
RightUpLeg -12.076598 2.080797 -4.181959
RightLeg 2.694821 -0.000000 -0.000000
RightFoot -9.670073 0.289555 -9.840690
RightToeBase -3.481772 -0.000000 0.000000
799
root -15.443330 33.180367 -3.145227 14.368369 -13.541145 8.906057
Spine -21.090458 14.743747 -3.856336
Head 12.751315 -3.272526 2.133143
LeftShoulder -16.079913 28.489607 6.985853
LeftArm 15.527159 25.780545 -75.390234
LeftForeArm 5.718718 -0.000000 35.888744
LeftHand -26.170425 -0.000000 -1.230945
LeftHandThumb1 -26.253704 0.000000 33.147579
RightShoulder -19.024217 6.766043 -20.423627
RightArm -13.773030 -24.914719 85.693492
RightForeArm -16.133738 -0.000000 58.093348
RightHand 0.703750 -0.000000 -32.404491
RightHandThumb1 -24.326973 -0.000000 -32.862282
LeftUpLeg -35.102092 -5.022125 -1.569304
LeftLeg 107.379877 -0.000000 -0.000000
LeftFoot 36.305353 11.407503 -18.546517
LeftToeBase 22.610618 -0.000000 -0.000000
RightUpLeg -12.093862 2.089033 -4.158519
RightLeg 2.720066 -0.000000 -0.000000
RightFoot -9.673478 0.233151 -9.892035
RightToeBase -3.541986 -0.000000 0.000000
800
root -15.443077 33.178047 -3.144576 14.382011 -13.539307 8.889765
Spine -21.083253 14.770643 -3.849216
Head 12.693909 -3.313457 2.188053
LeftShoulder -16.079134 28.470718 7.003692
LeftArm 15.501969 25.756701 -75.402005
LeftForeArm 5.736711 -0.000000 36.019161
LeftHand -26.152672 -0.000000 -1.213667
LeftHandThumb1 -26.253704 0.000000 33.147579
RightShoulder -19.031298 6.775613 -20.406137
RightArm -13.797057 -24.863194 85.662815
RightForeArm -16.168393 0.000000 58.158763
RightHand 0.705001 -0.000000 -32.318213
RightHandThumb1 -24.326973 -0.000000 -32.862282
LeftUpLeg -35.108566 -5.306917 -1.437795
LeftLeg 107.331203 -0.000000 -0.000000
LeftFoot 36.265788 11.476823 -18.583963
LeftToeBase 22.516192 -0.000000 -0.000000
RightUpLeg -12.112534 2.139484 -4.151502
RightLeg 2.742923 -0.000000 -0.000000
RightFoot -9.675012 0.156607 -9.942586
RightToeBase -3.632060 -0.000000 0.000000
801
root -15.443272 33.175817 -3.144738 14.402004 -13.545204 8.875617
Spine -21.082182 14.787792 -3.849298
Head 12.647919 -3.317717 2.239973
LeftShoulder -16.086270 28.475830 7.014946
LeftArm 15.515085 25.817414 -75.341764
LeftForeArm 5.635579 -0.000000 36.133488
LeftHand -26.125624 -0.000000 -1.149011
LeftHandThumb1 -26.253704 0.000000 33.147579
RightShoulder -19.034215 6.779480 -20.377351
RightArm -13.800336 -24.847036 85.624724
RightForeArm -16.183954 0.000000 58.217422
RightHand 0.704809 0.000000 -32.256960
RightHandThumb1 -24.326973 -0.000000 -32.862282
LeftUpLeg -35.122308 -5.580338 -1.303860
LeftLeg 107.283301 -0.000000 -0.000000
LeftFoot 36.230665 11.557551 -18.610513
LeftToeBase 22.431509 -0.000000 -0.000000
RightUpLeg -12.137934 2.183134 -4.144024
RightLeg 2.757734 -0.000000 -0.000000
RightFoot -9.683573 0.116777 -9.969007
RightToeBase -3.627500 -0.000000 0.000000
802
root -15.443902 33.174318 -3.145045 14.431011 -13.579481 8.861800
Spine -21.100962 14.828113 -3.869401
Head 12.610674 -3.345418 2.287992
LeftShoulder -16.087559 28.502161 7.017940
LeftArm 15.533899 25.763072 -75.314083
LeftForeArm 5.514046 -0.000000 36.196556
LeftHand -26.131174 -0.000000 -1.221113
LeftHandThumb1 -26.253704 0.000000 33.147579
RightShoulder -19.052410 6.776083 -20.346480
RightArm -13.792516 -24.830434 85.599438
RightForeArm -16.223463 0.000000 58.252470
RightHand 0.736581 -0.000000 -32.205582
RightHandThumb1 -24.326973 -0.000000 -32.862282
LeftUpLeg -35.132734 -5.856292 -1.171471
LeftLeg 107.216802 -0.000000 -0.000000
LeftFoot 36.174089 11.899503 -18.680020
LeftToeBase 23.497351 -0.000000 -0.000000
RightUpLeg -12.175212 2.228338 -4.139748
RightLeg 2.769542 -0.000000 -0.000000
RightFoot -9.689821 0.086864 -10.012387
RightToeBase -3.610042 -0.000000 0.000000
803
root -15.445763 33.171869 -3.145535 14.463976 -13.629393 8.832658
Spine -21.116559 14.857204 -3.871168
Head 12.574921 -3.321426 2.343008
LeftShoulder -16.102195 28.512567 7.026067
LeftArm 15.502317 25.663806 -75.365645
LeftForeArm 5.649100 -0.000000 36.217821
LeftHand -26.118545 -0.000000 -1.245190
LeftHandThumb1 -26.253704 0.000000 33.147579
RightShoulder -19.058334 6.778638 -20.316535
RightArm -13.770440 -24.847879 85.574334
RightForeArm -16.233578 0.000000 58.284966
RightHand 0.712639 -0.000000 -32.155395
RightHandThumb1 -24.326973 -0.000000 -32.862282
LeftUpLeg -35.152054 -6.120260 -1.010627
LeftLeg 107.182612 -0.000000 -0.000000
LeftFoot 36.255243 11.813009 -18.628012
LeftToeBase 23.017580 -0.000000 -0.000000
RightUpLeg -12.207969 2.272349 -4.119830
RightLeg 2.767667 -0.000000 -0.000000
RightFoot -9.694158 0.082659 -10.044142
RightToeBase -3.661858 -0.000000 0.000000
804
root -15.449182 33.169580 -3.144519 14.487604 -13.697049 8.800250
Spine -21.126003 14.890454 -3.869172
Head 12.541287 -3.312323 2.391955
LeftShoulder -16.103224 28.524359 7.034677
LeftArm 15.465085 25.642543 -75.361844
LeftForeArm 5.647833 -0.000000 36.232224
LeftHand -26.091790 -0.000000 -1.262925
LeftHandThumb1 -26.253704 0.000000 33.147579
RightShoulder -19.053981 6.778823 -20.293480
RightArm -13.748156 -24.839069 85.572786
RightForeArm -16.241950 -0.000000 58.298451
RightHand 0.749860 0.000000 -32.102524
RightHandThumb1 -24.326973 -0.000000 -32.862282
LeftUpLeg -35.142474 -6.333602 -0.874347
LeftLeg 107.169163 -0.000000 -0.000000
LeftFoot 36.294591 11.623030 -18.350273
LeftToeBase 22.765322 -0.000000 -0.000000
RightUpLeg -12.227271 2.328759 -4.099676
RightLeg 2.756501 -0.000000 -0.000000
RightFoot -9.675639 0.101618 -10.084688
RightToeBase -3.718585 -0.000000 0.000000
805
root -15.450850 33.167248 -3.143942 14.512009 -13.772948 8.777119
Spine -21.136945 14.929596 -3.879934
Head 12.518244 -3.286348 2.426324
LeftShoulder -16.092315 28.538570 7.045499
LeftArm 15.419717 25.617845 -75.359508
LeftForeArm 5.637838 -0.000000 36.241366
LeftHand -26.128773 -0.000000 -1.282883
LeftHandThumb1 -26.253704 0.000000 33.147579
RightShoulder -19.060643 6.779578 -20.285586
RightArm -13.720161 -24.872033 85.581749
RightForeArm -16.213752 -0.000000 58.300562
RightHand 0.762515 -0.000000 -32.080264
RightHandThumb1 -24.326973 -0.000000 -32.862282
LeftUpLeg -35.151829 -6.593586 -0.708872
LeftLeg 107.161014 -0.000000 -0.000000
LeftFoot 36.367905 11.241207 -18.268184
LeftToeBase 21.989506 -0.000000 -0.000000
RightUpLeg -12.258197 2.362784 -4.085368
RightLeg 2.757792 -0.000000 -0.000000
RightFoot -9.681384 0.140521 -10.135558
RightToeBase -3.744194 -0.000000 0.000000
